<?xml version="1.0" encoding="UTF-8"?>
<svg version="1.1" xmlns="http://www.w3.org/2000/svg" width="512" height="512">
<path d="M0 0 C84.81 0 169.62 0 257 0 C257 10.23 257 20.46 257 31 C267.56 31 278.12 31 289 31 C289 41.89 289 52.78 289 64 C299.23 64 309.46 64 320 64 C320 74.23 320 84.46 320 95 C330.89 95 341.78 95 353 95 C353 126.68 353 158.36 353 191 C363.23 191 373.46 191 384 191 C384 244.13 384 297.26 384 352 C373.77 352 363.54 352 353 352 C353 373.45 353 394.9 353 417 C342.11 417 331.22 417 320 417 C320 427.23 320 437.46 320 448 C309.77 448 299.54 448 289 448 C289 458.89 289 469.78 289 481 C278.44 481 267.88 481 257 481 C257 491.23 257 501.46 257 512 C235.55 512 214.1 512 192 512 C192 480.65 192 449.3 192 417 C181.11 417 170.22 417 159 417 C159 406.11 159 395.22 159 384 C180.12 384 201.24 384 223 384 C223 373.11 223 362.22 223 351 C233.89 351 244.78 351 256 351 C256 340.77 256 330.54 256 320 C266.56 320 277.12 320 288 320 C288 277.76 288 235.52 288 192 C277.44 192 266.88 192 256 192 C256 160.32 256 128.64 256 96 C245.44 96 234.88 96 224 96 C224 106.89 224 117.78 224 129 C160.64 129 97.28 129 32 129 C32 118.11 32 107.22 32 96 C21.77 96 11.54 96 1 96 C1 127.68 1 159.36 1 192 C-9.89 192 -20.78 192 -32 192 C-32 234.24 -32 276.48 -32 320 C-21.11 320 -10.22 320 1 320 C1 330.23 1 340.46 1 351 C11.56 351 22.12 351 33 351 C33 361.89 33 372.78 33 384 C54.12 384 75.24 384 97 384 C97 394.89 97 405.78 97 417 C65.32 417 33.64 417 1 417 C1 426.9 1 436.8 1 447 C32.68 447 64.36 447 97 447 C97 468.45 97 489.9 97 512 C64.99 512 32.98 512 0 512 C0 501.77 0 491.54 0 481 C-10.89 481 -21.78 481 -33 481 C-33 470.11 -33 459.22 -33 448 C-43.23 448 -53.46 448 -64 448 C-64 437.77 -64 427.54 -64 417 C-74.89 417 -85.78 417 -97 417 C-97 395.55 -97 374.1 -97 352 C-107.23 352 -117.46 352 -128 352 C-128 298.87 -128 245.74 -128 191 C-117.77 191 -107.54 191 -97 191 C-97 159.32 -97 127.64 -97 95 C-86.11 95 -75.22 95 -64 95 C-64 84.77 -64 74.54 -64 64 C-53.77 64 -43.54 64 -33 64 C-33 53.11 -33 42.22 -33 31 C-22.11 31 -11.22 31 0 31 C0 20.77 0 10.54 0 0 Z M-32 385 C-32 395.23 -32 405.46 -32 416 C-21.44 416 -10.88 416 0 416 C0 405.77 0 395.54 0 385 C-10.56 385 -21.12 385 -32 385 Z " fill="#000000" transform="translate(128,0)"/>
</svg>
