<?xml version="1.0" encoding="UTF-8"?>
<svg version="1.1" xmlns="http://www.w3.org/2000/svg" width="400" height="400">
<path d="M0 0 C0.8325531 0.00182281 1.6651062 0.00364563 2.52288818 0.00552368 C15.33044228 0.05263623 27.75361964 0.60800181 40.3125 3.3125 C41.12170898 3.47878906 41.93091797 3.64507812 42.76464844 3.81640625 C81.31410517 11.91944503 113.89220416 31.53920244 142.3125 58.3125 C143.14523437 59.07949219 143.97796875 59.84648438 144.8359375 60.63671875 C177.73036381 91.98755547 199.28752159 141.80861838 200.60183716 187.15718079 C200.68198295 191.334288 200.69722846 195.50971817 200.6875 199.6875 C200.68668427 201.00809921 200.68668427 201.00809921 200.68585205 202.3553772 C200.64532856 216.65773711 199.75244679 230.37451741 196.3125 244.3125 C196.08755859 245.22467285 195.86261719 246.1368457 195.63085938 247.07666016 C194.06660982 253.22485038 192.27961061 259.28178604 190.3125 265.3125 C190.08336914 266.01777832 189.85423828 266.72305664 189.61816406 267.44970703 C183.7921519 284.96579441 175.14852713 301.39697722 164.3125 316.3125 C163.70970215 317.1485376 163.70970215 317.1485376 163.09472656 318.00146484 C157.18832881 326.12335668 150.67273189 333.58245098 143.72802734 340.82958984 C142.44694449 342.1716556 141.18516783 343.53208521 139.92578125 344.89453125 C110.09838824 376.24114632 62.2616996 398.39251132 19.02435303 400.41978455 C16.65385086 400.47558581 14.28518827 400.50322473 11.9140625 400.515625 C11.03962494 400.52132507 10.16518738 400.52702515 9.26425171 400.53289795 C7.42048324 400.54228705 5.57669845 400.54885748 3.73291016 400.55273438 C0.97917461 400.56235441 -1.77378535 400.59340098 -4.52734375 400.625 C-19.68566072 400.71579636 -34.48461183 399.14384934 -49.125 395.0625 C-49.89610107 394.85125488 -50.66720215 394.64000977 -51.46166992 394.42236328 C-85.8756557 384.7543826 -114.75680892 367.82064724 -140.6875 343.3125 C-141.54472656 342.50941406 -142.40195313 341.70632813 -143.28515625 340.87890625 C-150.16214518 334.24168555 -156.03853144 326.99822755 -161.6875 319.3125 C-162.10499512 318.74466797 -162.52249023 318.17683594 -162.95263672 317.59179688 C-193.64160607 275.17990904 -206.38791248 220.765427 -198.5 169 C-197.98446131 166.08007662 -197.36553854 163.19862893 -196.6875 160.3125 C-196.43009033 159.1670874 -196.43009033 159.1670874 -196.16748047 157.99853516 C-187.62482333 120.70552342 -170.08151611 87.91304626 -143.6875 60.3125 C-142.81351563 59.38566406 -141.93953125 58.45882812 -141.0390625 57.50390625 C-134.12050516 50.35202513 -126.69777207 44.18106916 -118.6875 38.3125 C-118.12111816 37.89645508 -117.55473633 37.48041016 -116.97119141 37.05175781 C-82.70652032 12.25534447 -42.0920419 -0.19216504 0 0 Z " fill="#0F1932" transform="translate(199.6875,-0.3125)"/>
<path d="M0 0 C8.86875 -0.103125 17.7375 -0.20625 26.875 -0.3125 C29.65534668 -0.35802002 32.43569336 -0.40354004 35.30029297 -0.45043945 C37.53091225 -0.4650574 39.76154497 -0.47779497 41.9921875 -0.48828125 C43.12857666 -0.51386108 44.26496582 -0.53944092 45.43579102 -0.5657959 C52.93957049 -0.56986078 58.80477886 0.57136534 65 5 C70.88315329 11.37899629 72.44843012 15.93933696 72.32421875 24.60546875 C71.83605887 29.71644392 70.4780344 33.20511077 67 37 C63.49403697 39.6540928 59.85909303 41.8981122 56 44 C57.97718693 46.75142815 59.95689745 49.50102964 61.9375 52.25 C62.52490967 53.06597656 63.11231934 53.88195312 63.7175293 54.72265625 C67.88228222 60.49299441 72.13406584 66.18407075 76.48828125 71.8125 C78 74 78 74 78 76 C73.37859311 76.99187588 69.59577362 77.21520456 65 76 C60.81216895 72.54553401 58.10302106 67.59186237 55.28320312 63.02294922 C53.35440313 59.98222686 51.19044704 57.17068009 49 54.3125 C48.29875 53.38050781 47.5975 52.44851562 46.875 51.48828125 C46.25625 50.66714844 45.6375 49.84601563 45 49 C44.61674561 48.30124756 44.23349121 47.60249512 43.83862305 46.88256836 C41.56556902 44.5551856 39.93433602 44.491108 36.75427246 44.39404297 C36.07868286 44.39291504 35.40309326 44.39178711 34.70703125 44.390625 C33.41514893 44.36000977 32.1232666 44.32939453 30.79223633 44.29785156 C29.14892334 44.28206055 27.50561035 44.26626953 25.8125 44.25 C20.594375 44.1675 15.37625 44.085 10 44 C10 54.56 10 65.12 10 76 C6.7 76 3.4 76 0 76 C0 50.92 0 25.84 0 0 Z " fill="#F7F8F9" transform="translate(225,148)"/>
<path d="M0 0 C4.88615246 4.85260908 5.68746835 9.22848081 6 16 C2.04 16 -1.92 16 -6 16 C-6.226875 14.5975 -6.45375 13.195 -6.6875 11.75 C-7.42496847 8.53241496 -7.88660285 7.13401481 -10.0625 4.5625 C-18.9731179 -0.17719037 -30.90768029 -0.40411532 -40.703125 1.53515625 C-43.55818669 2.50270493 -45.76810475 3.80324039 -48.0625 5.75 C-49.56036697 9.34488073 -49.22648387 11.32054838 -48 15 C-43.04543412 20.56642492 -35.24696146 21.11440737 -28.3046875 22.26171875 C-0.59278718 26.86358134 -0.59278718 26.86358134 6.9921875 36.7890625 C9.23821631 41.71639702 8.92579139 46.76864457 8 52 C5.45228831 58.64577507 0.7790369 62.5556945 -5.39453125 65.84765625 C-16.86635128 70.92139974 -33.79517706 70.99940582 -45.64453125 67.03125 C-53.51692398 63.5846303 -59.38320816 58.96214608 -63 51 C-63.70377963 47.90336961 -63.89851641 45.19673319 -64 42 C-60.04 42 -56.08 42 -52 42 C-51.443125 44.0728125 -51.443125 44.0728125 -50.875 46.1875 C-49.25050695 50.97072954 -47.40385712 53.30875398 -43 56 C-33.95902468 59.74245166 -20.24155923 59.61909344 -11.125 56.3125 C-8.37862111 54.97440058 -6.93999796 53.93656928 -4.8125 51.6875 C-3.67342517 47.91979094 -3.77187765 45.75259607 -5 42 C-9.72318489 38.79540873 -14.16116688 37.20072005 -19.75 36.0625 C-21.24518119 35.72960935 -22.73995863 35.39490119 -24.234375 35.05859375 C-25.00974609 34.8869873 -25.78511719 34.71538086 -26.58398438 34.53857422 C-53.56223332 28.52462745 -53.56223332 28.52462745 -59.5625 19.6875 C-61.66374706 14.29734449 -62.33714566 10.05272878 -59.96484375 4.63671875 C-55.97660045 -1.97332237 -50.74005403 -6.59024255 -43.28125 -8.80859375 C-26.84355737 -12.01217632 -12.97560807 -10.9149094 0 0 Z " fill="#F1F3F5" transform="translate(114,156)"/>
<path d="M0 0 C2.43868168 -0.1079859 4.87259133 -0.18726589 7.3125 -0.25 C8.00279297 -0.28351563 8.69308594 -0.31703125 9.40429688 -0.3515625 C14.4683426 -0.44941846 14.4683426 -0.44941846 16.79296875 1.515625 C18.13349366 4.27476365 19.20287979 7.06355993 20.23144531 9.95166016 C21.37239875 12.99251127 22.87250648 15.81045455 24.375 18.6875 C28.69619531 27.11341456 32.51362246 35.75950352 36.34793091 44.41384888 C39.96024204 52.56052704 43.64557621 60.64234826 47.81640625 68.52148438 C49.24797186 71.26217906 50 72.84839697 50 76 C31.52 76 13.04 76 -6 76 C-4 70 -4 70 -2 66 C9.55 66 21.1 66 33 66 C30.73018812 60.88260595 28.4583533 55.7662215 26.18066406 50.65234375 C25.40301734 48.90537228 24.62630088 47.15798636 23.85058594 45.41015625 C19.53603561 35.69409948 15.15302868 26.06960798 10.21484375 16.65234375 C9 14 9 14 9 11 C8.34 11 7.68 11 7 11 C6.73823975 11.83740723 6.47647949 12.67481445 6.20678711 13.53759766 C4.90763445 17.26500671 3.3472182 20.82083433 1.69140625 24.3984375 C1.20697304 25.45494255 1.20697304 25.45494255 0.7127533 26.53279114 C-0.33443939 28.81486861 -1.38593025 31.09493663 -2.4375 33.375 C-3.159148 34.94558442 -3.88050037 36.51630472 -4.6015625 38.0871582 C-6.04644884 41.23379552 -7.49294784 44.37968291 -8.94091797 47.52490234 C-11.31879661 52.69085786 -13.68726022 57.8610987 -16.05493164 63.03173828 C-18.03477121 67.35534129 -20.01736144 71.67767991 -22 76 C-25.96 76 -29.92 76 -34 76 C-33.17705227 71.88526137 -32.718652 70.16421522 -30.6875 66.8125 C-28.89250282 63.70321714 -27.39990365 60.66809055 -26.125 57.3125 C-24.0558473 51.90410494 -21.44428878 46.81990201 -18.78125 41.6875 C-17.41198848 38.95428711 -16.249447 36.18144401 -15.1328125 33.3359375 C-12.77328523 27.32676535 -10.08336284 21.48346401 -7.375 15.625 C-6.88515625 14.55894531 -6.3953125 13.49289063 -5.890625 12.39453125 C-2.01091732 3.96729736 -2.01091732 3.96729736 0 0 Z " fill="#F2F4F6" transform="translate(164,148)"/>
<path d="M0 0 C5.85406659 -0.0920692 11.70559944 -0.17163476 17.55981445 -0.21972656 C19.54915908 -0.23978337 21.53844518 -0.26703585 23.52758789 -0.30175781 C26.39484131 -0.35053771 29.26131211 -0.37302827 32.12890625 -0.390625 C33.45276085 -0.42159271 33.45276085 -0.42159271 34.80335999 -0.45318604 C40.73127075 -0.45531727 44.13066379 0.57435222 49 4 C51.80510958 7.15574828 51.99481712 8.67347872 52.0625 12.9375 C51.28346453 17.5591936 48.73716923 20.31332859 45 23 C42.24414648 23.91861784 40.6403931 24.12204322 37.80395508 24.11352539 C36.96331009 24.11344986 36.1226651 24.11337433 35.25654602 24.11329651 C34.35333115 24.10813522 33.45011627 24.10297394 32.51953125 24.09765625 C31.59154221 24.0962413 30.66355316 24.09482635 29.70744324 24.09336853 C26.74242942 24.08776937 23.77749101 24.07521704 20.8125 24.0625 C18.80273547 24.05748489 16.79296975 24.052922 14.78320312 24.04882812 C9.8554163 24.03865095 4.9277926 24.01907533 0 24 C0 16.08 0 8.16 0 0 Z " fill="#182138" transform="translate(235,158)"/>
<path d="M0 0 C14.19 0 28.38 0 43 0 C43 25.08 43 50.16 43 76 C39.37 76 35.74 76 32 76 C32 54.22 32 32.44 32 10 C21.44 10 10.88 10 0 10 C0 6.7 0 3.4 0 0 Z " fill="#F2F4F4" transform="translate(307,148)"/>
<path d="M0 0 C3.63 0 7.26 0 11 0 C11 25.08 11 50.16 11 76 C7.37 76 3.74 76 0 76 C0 50.92 0 25.84 0 0 Z " fill="#F2F4F5" transform="translate(21,148)"/>
<path d="M0 0 C10.08839779 -0.60773481 10.08839779 -0.60773481 14.1875 2.125 C16.34663968 5.54984225 16.82630866 7.03371841 16 11 C14.1875 13.875 14.1875 13.875 11 16 C7.22851721 16.41846508 3.81542502 16.22984488 0 16 C0 10.72 0 5.44 0 0 Z " fill="#DCE4EB" transform="translate(21,237)"/>
<path d="M0 0 C0.66 1.32 1.32 2.64 2 4 C-0.01822917 3.96744792 -2.03645833 3.93489583 -4.0546875 3.90234375 C-6.08185404 3.87350758 -6.08185404 3.87350758 -8 5 C-8.16677282 8.41656024 -8.16677282 8.41656024 -8 12 C-5.4345406 14.5654594 -3.52313332 14.54046087 0 15 C0 13.35 0 11.7 0 10 C-0.99 10 -1.98 10 -3 10 C-3 9.34 -3 8.68 -3 8 C-1.02 8 0.96 8 3 8 C3 10.97 3 13.94 3 17 C-0.21650336 18.60825168 -3.51174812 18.46109077 -7 18 C-10.01381221 16.46103206 -11.51689675 15.36121444 -12.6640625 12.12890625 C-13.41937479 8.21164935 -13.33255519 6.53896875 -11.1875 3.0625 C-7.48483005 -0.42858881 -4.99695161 -0.09253614 0 0 Z " fill="#E2E6EC" transform="translate(138,236)"/>
<path d="M0 0 C1.32 0 2.64 0 4 0 C5.00696568 2.10084209 6.0053589 4.20579489 7 6.3125 C7.556875 7.48425781 8.11375 8.65601563 8.6875 9.86328125 C10 13 10 13 10 16 C9.01 16 8.02 16 7 16 C6.67 15.34 6.34 14.68 6 14 C3.36 14 0.72 14 -2 14 C-2.33 14.66 -2.66 15.32 -3 16 C-3.99 16 -4.98 16 -6 16 C-5.52412884 9.97229862 -2.80277043 5.23321711 0 0 Z " fill="#E1E6ED" transform="translate(288,237)"/>
<path d="M0 0 C3.3 0 6.6 0 10 0 C10 3.3 10 6.6 10 10 C6.7 10 3.4 10 0 10 C0 6.7 0 3.4 0 0 Z " fill="#F1F4F7" transform="translate(371,148)"/>
<path d="M0 0 C6.75 0.75 6.75 0.75 9 3 C9.375 5.9375 9.375 5.9375 9 9 C7.3125 10.875 7.3125 10.875 5 12 C3.35 12 1.7 12 0 12 C0 8.04 0 4.08 0 0 Z " fill="#1E2739" transform="translate(24,239)"/>
<path d="M0 0 C0 0.99 0 1.98 0 3 C1.32 3.66 2.64 4.32 4 5 C2.02 5 0.04 5 -2 5 C-2 5.66 -2 6.32 -2 7 C-1.01 7 -0.02 7 1 7 C1 8.65 1 10.3 1 12 C-4.36842105 12.35789474 -4.36842105 12.35789474 -6.875 10.9375 C-8.63763183 7.90185629 -8.37331109 5.42201828 -8 2 C-4.77208445 -0.1519437 -3.71599191 -0.20086443 0 0 Z " fill="#212C3B" transform="translate(137,239)"/>
<path d="M0 0 C4.62 0 9.24 0 14 0 C14 0.66 14 1.32 14 2 C12.35 2 10.7 2 9 2 C9 6.62 9 11.24 9 16 C8.01 16 7.02 16 6 16 C6 11.38 6 6.76 6 2 C4.02 2 2.04 2 0 2 C0 1.34 0 0.68 0 0 Z " fill="#E1E8EC" transform="translate(229,237)"/>
<path d="M0 0 C1.32 0 2.64 0 4 0 C4 5.28 4 10.56 4 16 C2.68 16 1.36 16 0 16 C0 10.72 0 5.44 0 0 Z " fill="#C2C9CF" transform="translate(184,237)"/>
<path d="M0 0 C1.32 0 2.64 0 4 0 C4 5.28 4 10.56 4 16 C2.68 16 1.36 16 0 16 C0 10.72 0 5.44 0 0 Z " fill="#C8CED5" transform="translate(79,237)"/>
<path d="M0 0 C0.99 0 1.98 0 3 0 C3 4.62 3 9.24 3 14 C5.31 14 7.62 14 10 14 C10 14.66 10 15.32 10 16 C6.7 16 3.4 16 0 16 C0 10.72 0 5.44 0 0 Z " fill="#ECF2F8" transform="translate(340,237)"/>
<path d="M0 0 C1.98 0 3.96 0 6 0 C6 2.97 6 5.94 6 9 C2.78548731 10.60725635 -0.43612536 10.05748185 -4 10 C-4 9.01 -4 8.02 -4 7 C-1.69 7 0.62 7 3 7 C3 5.35 3 3.7 3 2 C2.01 2 1.02 2 0 2 C0 1.34 0 0.68 0 0 Z " fill="#D8DEE8" transform="translate(135,244)"/>
<path d="M0 0 C-0.66 0 -1.32 0 -2 0 C-2.226875 0.556875 -2.45375 1.11375 -2.6875 1.6875 C-4.35702054 4.62903619 -6.58675821 6.6486362 -9 9 C-9.33 9.66 -9.66 10.32 -10 11 C-10.66 11 -11.32 11 -12 11 C-11.63166144 4.61546499 -11.63166144 4.61546499 -8.5625 1.625 C-5.02049592 -0.62114893 -3.99232074 -1.19769622 0 0 Z " fill="#22293C" transform="translate(76,158)"/>
<path d="M0 0 C0.33 0.99 0.66 1.98 1 3 C1.66 3 2.32 3 3 3 C3.33 4.98 3.66 6.96 4 9 C2.35 9 0.7 9 -1 9 C-2.1875 6.75 -2.1875 6.75 -3 4 C-1.625 1.6875 -1.625 1.6875 0 0 Z " fill="#D2D7E0" transform="translate(288,239)"/>
<path d="M0 0 C1.98 0 3.96 0 6 0 C6 0.66 6 1.32 6 2 C4.68 2 3.36 2 2 2 C2.02320313 2.60328125 2.04640625 3.2065625 2.0703125 3.828125 C2.08835937 4.62734375 2.10640625 5.4265625 2.125 6.25 C2.14820313 7.03890625 2.17140625 7.8278125 2.1953125 8.640625 C2 11 2 11 0 15 C0 10.05 0 5.1 0 0 Z " fill="#F3FBFE" transform="translate(22,237)"/>
<path d="M0 0 C-2.65228812 1.07525194 -5.28368454 2.09456151 -8 3 C-8 3.33 -8 3.66 -8 4 C-9.98 4 -11.96 4 -14 4 C-14 3.67 -14 3.34 -14 3 C-16.31 2.67 -18.62 2.34 -21 2 C-21 1.67 -21 1.34 -21 1 C-18.25091555 0.63685675 -15.50116549 0.28419159 -12.75 -0.0625 C-11.97269531 -0.16626953 -11.19539063 -0.27003906 -10.39453125 -0.37695312 C-9.64042969 -0.47041016 -8.88632813 -0.56386719 -8.109375 -0.66015625 C-7.41811523 -0.74918213 -6.72685547 -0.83820801 -6.01464844 -0.92993164 C-3.82569152 -1.00606235 -2.08994187 -0.6249336 0 0 Z " fill="#2A3143" transform="translate(106,224)"/>
<path d="M0 0 C0.33 0.66 0.66 1.32 1 2 C1.66 2 2.32 2 3 2 C3.33 2.99 3.66 3.98 4 5 C3.01 5.33 2.02 5.66 1 6 C0.67 6.99 0.34 7.98 0 9 C-0.99 8.67 -1.98 8.34 -3 8 C-1.125 2.25 -1.125 2.25 0 0 Z " fill="#20283C" transform="translate(147,211)"/>
<path d="M0 0 C0.66 0.99 1.32 1.98 2 3 C3.96361864 3.57748803 3.96361864 3.57748803 6.125 3.6875 C7.40375 3.790625 8.6825 3.89375 10 4 C10 4.33 10 4.66 10 5 C6.92382812 5.29296875 6.92382812 5.29296875 3.84765625 5.5859375 C3.23792969 5.72257813 2.62820313 5.85921875 2 6 C1.67 6.66 1.34 7.32 1 8 C0.01 8 -0.98 8 -2 8 C-1.125 2.25 -1.125 2.25 0 0 Z " fill="#BCC1CC" transform="translate(284,245)"/>
<path d="M0 0 C3.37462715 0.54723683 5.08235 1.0549 8 3 C8 3.66 8 4.32 8 5 C7.34 5 6.68 5 6 5 C6 6.65 6 8.3 6 10 C5.67 10 5.34 10 5 10 C4.731875 9.05125 4.46375 8.1025 4.1875 7.125 C3.25013412 3.74732727 3.25013412 3.74732727 0 2 C0 1.34 0 0.68 0 0 Z " fill="#D0D6DD" transform="translate(28,237)"/>
<path d="M0 0 C2.40921705 2.40921705 3.53812156 4.94334509 5 8 C4.34 8.66 3.68 9.32 3 10 C3 9.01 3 8.02 3 7 C1.68 7.33 0.36 7.66 -1 8 C-1 6.68 -1 5.36 -1 4 C-1.66 3.67 -2.32 3.34 -3 3 C-2.34 3 -1.68 3 -1 3 C-0.67 2.01 -0.34 1.02 0 0 Z " fill="#1D2637" transform="translate(124,245)"/>
<path d="M0 0 C1.70884005 1.62339805 3.37446717 3.29319053 5 5 C5 5.66 5 6.32 5 7 C0.71 7 -3.58 7 -8 7 C-8 6.67 -8 6.34 -8 6 C-4.7 6 -1.4 6 2 6 C2 5.34 2 4.68 2 4 C1.34 4 0.68 4 0 4 C0 2.68 0 1.36 0 0 Z " fill="#D4D8E1" transform="translate(298,217)"/>
<path d="M0 0 C4.00972202 3.67557852 6.45335415 7.18966896 9 12 C8.01 12 7.02 12 6 12 C5.67 11.01 5.34 10.02 5 9 C4.34 9 3.68 9 3 9 C2.814375 8.1646875 2.814375 8.1646875 2.625 7.3125 C1.94023145 4.77885636 1.00866237 2.42078968 0 0 Z " fill="#D8DEE5" transform="translate(288,203)"/>
<path d="M0 0 C3.63 0.66 7.26 1.32 11 2 C11 2.33 11 2.66 11 3 C8.69 3 6.38 3 4 3 C4 3.66 4 4.32 4 5 C2.02 4.34 0.04 3.68 -2 3 C-1.34 2.67 -0.68 2.34 0 2 C0 1.34 0 0.68 0 0 Z " fill="#212C3D" transform="translate(71,186)"/>
<path d="M0 0 C0.99 0 1.98 0 3 0 C2.01 2.97 1.02 5.94 0 9 C-2 7.625 -2 7.625 -4 6 C-4 5.34 -4 4.68 -4 4 C-3.34 4 -2.68 4 -2 4 C-1.34 2.68 -0.68 1.36 0 0 Z " fill="#1C2339" transform="translate(157,157)"/>
<path d="M0 0 C0 1.98 0 3.96 0 6 C-0.99 6.33 -1.98 6.66 -3 7 C-3.66 6.67 -4.32 6.34 -5 6 C-4.625 3.5625 -4.625 3.5625 -4 1 C-2 0 -2 0 0 0 Z " fill="#FCFDF8" transform="translate(380,149)"/>
<path d="M0 0 C0.33 0 0.66 0 1 0 C1.309375 0.94875 1.61875 1.8975 1.9375 2.875 C2.87394742 5.86080408 2.87394742 5.86080408 4 8 C3.67 8.66 3.34 9.32 3 10 C1.68 9.34 0.36 8.68 -1 8 C-1 4.88742431 -0.82638376 2.89234315 0 0 Z " fill="#C7CED8" transform="translate(128,243)"/>
<path d="M0 0 C1.98 0.495 1.98 0.495 4 1 C3.67 6.28 3.34 11.56 3 17 C2.67 17 2.34 17 2 17 C2 12.38 2 7.76 2 3 C1.01 2.67 0.02 2.34 -1 2 C-0.67 1.34 -0.34 0.68 0 0 Z " fill="#1E2638" transform="translate(186,234)"/>
<path d="M0 0 C2.14210449 1.76956458 2.96060573 2.87575652 3.8125 5.5625 C3.874375 6.366875 3.93625 7.17125 4 8 C3.34 8.66 2.68 9.32 2 10 C0.68 7.03 -0.64 4.06 -2 1 C-1.34 0.67 -0.68 0.34 0 0 Z " fill="#182133" transform="translate(210,209)"/>
<path d="M0 0 C0.99 0.99 1.98 1.98 3 3 C2.92578125 5.2265625 2.92578125 5.2265625 2.3125 7.625 C2.12300781 8.42164063 1.93351562 9.21828125 1.73828125 10.0390625 C1 12 1 12 -1 13 C-0.67 8.71 -0.34 4.42 0 0 Z " fill="#39404F" transform="translate(122,197)"/>
<path d="M0 0 C0 1.65 0 3.3 0 5 C-0.66 5 -1.32 5 -2 5 C-2 3.68 -2 2.36 -2 1 C-5.96 1 -9.92 1 -14 1 C-14 0.67 -14 0.34 -14 0 C-12.2300132 -0.19532961 -10.45895721 -0.38098882 -8.6875 -0.5625 C-7.70136719 -0.66691406 -6.71523438 -0.77132812 -5.69921875 -0.87890625 C-3 -1 -3 -1 0 0 Z " fill="#3F4655" transform="translate(64,197)"/>
<path d="M0 0 C3 1 3 1 4.8125 3.8125 C6 7 6 7 5.1875 9.375 C4.795625 9.91125 4.40375 10.4475 4 11 C3.731875 10.071875 3.46375 9.14375 3.1875 8.1875 C2.08851629 5.23759634 1.37581439 3.94384814 -1 2 C-0.67 1.34 -0.34 0.68 0 0 Z " fill="#1F293A" transform="translate(33,235)"/>
<path d="M0 0 C1.67542976 0.28604898 3.34385343 0.61781233 5 1 C4.67 1.99 4.34 2.98 4 4 C3.34 4 2.68 4 2 4 C2 4.66 2 5.32 2 6 C1.01 5.67 0.02 5.34 -1 5 C-0.34 5 0.32 5 1 5 C0.34 3.68 -0.32 2.36 -1 1 C-0.67 0.67 -0.34 0.34 0 0 Z " fill="#2A3247" transform="translate(139,235)"/>
<path d="M0 0 C2.31 0 4.62 0 7 0 C7.66 1.32 8.32 2.64 9 4 C5.625 3.6875 5.625 3.6875 2 3 C1.34 2.01 0.68 1.02 0 0 Z " fill="#C2C9D1" transform="translate(131,236)"/>
<path d="M0 0 C2.475 0.495 2.475 0.495 5 1 C5.33 3.31 5.66 5.62 6 8 C1.125 3.375 1.125 3.375 0 0 Z " fill="#2D3646" transform="translate(293,209)"/>
<path d="M0 0 C-0.33 0.66 -0.66 1.32 -1 2 C-4.63 1.34 -8.26 0.68 -12 0 C-12 -0.33 -12 -0.66 -12 -1 C-7.28400182 -1.92470553 -4.32734391 -2.22923777 0 0 Z " fill="#D0D7DE" transform="translate(104,157)"/>
<path d="M0 0 C1.65 0 3.3 0 5 0 C5 1.33333333 5 2.66666667 5 4 C3.35 4 1.7 4 0 4 C0 2.68 0 1.36 0 0 Z " fill="#10192A" transform="translate(25,246)"/>
<path d="M0 0 C2.64 0.33 5.28 0.66 8 1 C8 1.66 8 2.32 8 3 C5.69 3 3.38 3 1 3 C0.67 2.01 0.34 1.02 0 0 Z " fill="#1B2334" transform="translate(97,193)"/>
<path d="M0 0 C0.66 0 1.32 0 2 0 C2.33 1.65 2.66 3.3 3 5 C1 6 -1 7 -3 8 C-1.125 2.25 -1.125 2.25 0 0 Z " fill="#414451" transform="translate(171,159)"/>
<path d="M0 0 C1.32 0.33 2.64 0.66 4 1 C4.144375 1.78375 4.28875 2.5675 4.4375 3.375 C4.87798925 5.96421018 4.87798925 5.96421018 6 8 C5.34 8.66 4.68 9.32 4 10 C2.68 6.7 1.36 3.4 0 0 Z " fill="#E6EBF0" transform="translate(192,201)"/>
<path d="M0 0 C0.66 0.33 1.32 0.66 2 1 C1.67 2.65 1.34 4.3 1 6 C0.34 6 -0.32 6 -1 6 C-1 6.66 -1 7.32 -1 8 C-1.66 8 -2.32 8 -3 8 C-1.125 1.125 -1.125 1.125 0 0 Z " fill="#DCE2E7" transform="translate(149,181)"/>
<path d="M0 0 C-0.66 0 -1.32 0 -2 0 C-2.66 1.32 -3.32 2.64 -4 4 C-4.33 3.34 -4.66 2.68 -5 2 C-6.32 2.33 -7.64 2.66 -9 3 C-5.83583464 -0.30799106 -4.50236011 -1.35070803 0 0 Z " fill="#333A48" transform="translate(76,158)"/>
<path d="M0 0 C2.62187494 1.04874998 3.79371361 1.64931313 5.25 4.125 C5.4975 4.74375 5.745 5.3625 6 6 C3.11424181 5.60196439 2.17810487 5.20990931 0.25 2.9375 C-0.1625 2.298125 -0.575 1.65875 -1 1 C-0.67 0.67 -0.34 0.34 0 0 Z " fill="#E0E6EA" transform="translate(110,154)"/>
<path d="M0 0 C1.65 1.65 3.3 3.3 5 5 C4.34 5.66 3.68 6.32 3 7 C2.01 6.67 1.02 6.34 0 6 C-0.38218767 4.34385343 -0.71395102 2.67542976 -1 1 C-0.67 0.67 -0.34 0.34 0 0 Z " fill="#202739" transform="translate(281,212)"/>
<path d="M0 0 C0.99 0.33 1.98 0.66 3 1 C3.33 2.65 3.66 4.3 4 6 C3.01 6 2.02 6 1 6 C-0.0625 4.125 -0.0625 4.125 -1 2 C-0.67 1.34 -0.34 0.68 0 0 Z " fill="#192036" transform="translate(66,167)"/>
<path d="M0 0 C0.66 0 1.32 0 2 0 C2.33 1.65 2.66 3.3 3 5 C1.68 5 0.36 5 -1 5 C-0.67 3.35 -0.34 1.7 0 0 Z " fill="#393E46" transform="translate(289,242)"/>
<path d="M0 0 C-1.2065625 0.9590625 -1.2065625 0.9590625 -2.4375 1.9375 C-4.2750504 3.40603502 -4.2750504 3.40603502 -6 5 C-6.99 5.495 -6.99 5.495 -8 6 C-7.625 3.5625 -7.625 3.5625 -7 1 C-4.53721199 -0.231394 -2.7204945 -0.07159196 0 0 Z " fill="#2A3440" transform="translate(137,239)"/>
<path d="M0 0 C1.9375 0.6875 1.9375 0.6875 4 2 C4.75 4.625 4.75 4.625 5 7 C4.34 7 3.68 7 3 7 C3 6.01 3 5.02 3 4 C2.01 3.67 1.02 3.34 0 3 C0 2.01 0 1.02 0 0 Z " fill="#242D3F" transform="translate(177,174)"/>
<path d="M0 0 C1.4540625 0.0309375 1.4540625 0.0309375 2.9375 0.0625 C2.6075 1.0525 2.2775 2.0425 1.9375 3.0625 C-0.125 3.75 -0.125 3.75 -2.0625 4.0625 C-2.7225 3.0725 -3.3825 2.0825 -4.0625 1.0625 C-3.0625 0.0625 -3.0625 0.0625 0 0 Z " fill="#FAFAF9" transform="translate(66.0625,152.9375)"/>
</svg>
