<?xml version="1.0" encoding="UTF-8"?>
<svg version="1.1" xmlns="http://www.w3.org/2000/svg" width="225" height="225">
<path d="M0 0 C1.0063147 0.00456207 1.0063147 0.00456207 2.03295898 0.00921631 C34.49288708 0.2257313 61.73993579 13.01710307 84.53857422 35.9206543 C88.86330407 40.39541999 92.44184669 45.16326074 95.75 50.4375 C96.25917969 51.20191406 96.76835937 51.96632812 97.29296875 52.75390625 C108.31663185 69.95535485 112.93238498 90.1823281 112.99023438 110.38623047 C112.99984555 112.40505721 113.03089016 114.42282151 113.0625 116.44140625 C113.16420344 142.45206067 103.73832941 169.36243526 85.75 188.4375 C85.28255371 188.94974121 84.81510742 189.46198242 84.33349609 189.98974609 C66.19716734 209.78069947 40.82564652 223.43804078 13.75 225.4375 C-19.50864312 226.8543796 -50.66901278 220.93202257 -76.00488281 197.83789062 C-83.28755775 191.02121446 -90.18106564 184.09064654 -95.25 175.4375 C-95.6310791 174.79780273 -96.0121582 174.15810547 -96.40478516 173.49902344 C-107.1414134 155.22654434 -112.42951757 136.69411277 -112.49023438 115.48876953 C-112.49984555 113.46994279 -112.53089016 111.45217849 -112.5625 109.43359375 C-112.676462 80.28781263 -100.80790108 52.8310847 -80.4375 32.125 C-58.77671641 10.81575739 -30.24078482 -0.24018778 0 0 Z " fill="#FDFEFE" transform="translate(112.25,-0.4375)"/>
<path d="M0 0 C3.88410274 3.21390462 7.54682916 6.48702611 11.04296875 10.12109375 C11.72423828 10.82814453 12.40550781 11.53519531 13.10742188 12.26367188 C14.51341898 13.73303786 15.91168714 15.20983255 17.30273438 16.69335938 C17.98013672 17.39138672 18.65753906 18.08941406 19.35546875 18.80859375 C19.96028076 19.44595459 20.56509277 20.08331543 21.18823242 20.73999023 C22.89630376 22.18766356 22.89630376 22.18766356 24.92993164 21.97900391 C27.78128143 20.63050613 29.557801 18.7776259 31.765625 16.52734375 C33.09980469 15.17866211 33.09980469 15.17866211 34.4609375 13.80273438 C35.38132812 12.85720703 36.30171875 11.91167969 37.25 10.9375 C38.19461673 9.97783027 39.13992195 9.01883771 40.0859375 8.06054688 C42.39749172 5.71361172 44.7017634 3.35996609 47 1 C50.31613882 2.44580966 52.49185728 4.24829792 55.03417969 6.80712891 C55.81468689 7.58778717 56.59519409 8.36844543 57.39935303 9.17276001 C58.23178528 10.01551483 59.06421753 10.85826965 59.921875 11.7265625 C60.78186096 12.58937836 61.64184692 13.45219421 62.52789307 14.34115601 C65.2733231 17.09778029 68.0117169 19.86127799 70.75 22.625 C72.61021783 24.49524857 74.47088946 26.36504589 76.33203125 28.234375 C80.89329945 32.8176936 85.44881011 37.40667478 90 42 C85.5021065 47.39190397 80.73873458 52.39391684 75.7578125 57.33984375 C74.98944061 58.10680069 74.22106873 58.87375763 73.42941284 59.66395569 C70.99696491 62.0908474 68.56104678 64.51422127 66.125 66.9375 C64.46591448 68.59156486 62.80705798 70.24585945 61.1484375 71.90039062 C57.10160291 75.93625433 53.05192047 79.96924277 49 84 C45.3960802 82.30927402 43.10343044 80.32218589 40.3046875 77.46484375 C38.98404297 76.12776367 38.98404297 76.12776367 37.63671875 74.76367188 C36.72535156 73.83103516 35.81398438 72.89839844 34.875 71.9375 C33.06210385 70.09027833 31.24710642 68.24511579 29.4296875 66.40234375 C28.62772949 65.58241943 27.82577148 64.76249512 26.99951172 63.91772461 C25.14403639 61.9485366 25.14403639 61.9485366 23 61 C22.7642627 61.56170898 22.52852539 62.12341797 22.28564453 62.70214844 C20.69599628 65.54335036 18.74656724 67.47807285 16.4296875 69.765625 C15.53378906 70.65507813 14.63789062 71.54453125 13.71484375 72.4609375 C12.77769531 73.38132812 11.84054688 74.30171875 10.875 75.25 C9.92011363 76.19484856 8.96568141 77.14015633 8.01171875 78.0859375 C5.67890913 80.39518338 3.34155914 82.69963203 1 85 C-2.88410274 81.78609538 -6.54682916 78.51297389 -10.04296875 74.87890625 C-10.72423828 74.17185547 -11.40550781 73.46480469 -12.10742188 72.73632812 C-13.51341898 71.26696214 -14.91168714 69.79016745 -16.30273438 68.30664062 C-16.98013672 67.60861328 -17.65753906 66.91058594 -18.35546875 66.19140625 C-19.26268677 65.23536499 -19.26268677 65.23536499 -20.18823242 64.26000977 C-21.89630376 62.81233644 -21.89630376 62.81233644 -23.92993164 63.02099609 C-26.78128143 64.36949387 -28.557801 66.2223741 -30.765625 68.47265625 C-31.65507813 69.37177734 -32.54453125 70.27089844 -33.4609375 71.19726562 C-34.38132813 72.14279297 -35.30171875 73.08832031 -36.25 74.0625 C-37.19461673 75.02216973 -38.13992195 75.98116229 -39.0859375 76.93945312 C-41.39749172 79.28638828 -43.7017634 81.64003391 -46 84 C-49.31613882 82.55419034 -51.49185728 80.75170208 -54.03417969 78.19287109 C-54.81468689 77.41221283 -55.59519409 76.63155457 -56.39935303 75.82723999 C-57.23178528 74.98448517 -58.06421753 74.14173035 -58.921875 73.2734375 C-59.78186096 72.41062164 -60.64184692 71.54780579 -61.52789307 70.65884399 C-64.2733231 67.90221971 -67.0117169 65.13872201 -69.75 62.375 C-71.61021783 60.50475143 -73.47088946 58.63495411 -75.33203125 56.765625 C-79.89329945 52.1823064 -84.44881011 47.59332522 -89 43 C-84.5021065 37.60809603 -79.73873458 32.60608316 -74.7578125 27.66015625 C-73.98944061 26.89319931 -73.22106873 26.12624237 -72.42941284 25.33604431 C-69.99696491 22.9091526 -67.56104678 20.48577873 -65.125 18.0625 C-63.46591448 16.40843514 -61.80705798 14.75414055 -60.1484375 13.09960938 C-56.10160291 9.06374567 -52.05192047 5.03075723 -48 1 C-44.46682059 2.65778806 -42.28979719 4.53854078 -39.59375 7.38671875 C-38.76746094 8.24201172 -37.94117188 9.09730469 -37.08984375 9.97851562 C-35.35741876 11.79063739 -33.63087803 13.60840224 -31.91015625 15.43164062 C-31.08386719 16.28306641 -30.25757813 17.13449219 -29.40625 18.01171875 C-28.28186523 19.19447388 -28.28186523 19.19447388 -27.13476562 20.40112305 C-25.18237963 22.18664675 -25.18237963 22.18664675 -23.03613281 22.04248047 C-20.1677224 20.57388185 -18.27251998 18.6067734 -16.015625 16.30859375 C-15.55516785 15.84389175 -15.09471069 15.37918976 -14.62030029 14.90040588 C-13.15632189 13.41968181 -11.70313959 11.92885481 -10.25 10.4375 C-9.25720551 9.42965336 -8.2637233 8.42248367 -7.26953125 7.41601562 C-4.83833527 4.95180539 -2.41671132 2.47842671 0 0 Z " fill="#A3A4A6" transform="translate(112,52)"/>
<path d="M0 0 C3.62083128 1.69854037 5.94255354 3.71104782 8.765625 6.5703125 C9.65507813 7.46621094 10.54453125 8.36210938 11.4609375 9.28515625 C12.38132813 10.22230469 13.30171875 11.15945312 14.25 12.125 C15.19484856 13.07988637 16.14015633 14.03431859 17.0859375 14.98828125 C19.39518338 17.32109087 21.69963203 19.65844086 24 22 C21.8231071 26.62068454 18.9523471 28.77956903 15 32 C10.71 27.71 6.42 23.42 2 19 C-1.7654902 20.8827451 -3.64643414 22.41192649 -6.546875 25.3515625 C-7.39121094 26.20234375 -8.23554687 27.053125 -9.10546875 27.9296875 C-10.41451172 29.26386719 -10.41451172 29.26386719 -11.75 30.625 C-12.63816406 31.5221875 -13.52632812 32.419375 -14.44140625 33.34375 C-16.63216969 35.55807004 -18.81812763 37.77692435 -21 40 C-19.52028789 43.44893844 -17.57640468 45.64482454 -14.90234375 48.2578125 C-14.10119141 49.04800781 -13.30003906 49.83820313 -12.47460938 50.65234375 C-11.63736328 51.46832031 -10.80011719 52.28429687 -9.9375 53.125 C-8.27777378 54.75038706 -6.62011253 56.37788627 -4.96484375 58.0078125 C-4.2287085 58.72598145 -3.49257324 59.44415039 -2.73413086 60.18408203 C-1 62 -1 62 0 64 C2.85779017 62.70280076 4.91008536 61.3363174 7.11621094 59.11083984 C7.98666046 58.24016373 7.98666046 58.24016373 8.87469482 57.35189819 C9.48838928 56.72788116 10.10208374 56.10386414 10.734375 55.4609375 C11.69141327 54.49965439 11.69141327 54.49965439 12.66778564 53.51895142 C14.69994069 51.47562179 16.72502218 49.42544018 18.75 47.375 C20.1284453 45.9865214 21.50734636 44.5984951 22.88671875 43.2109375 C26.26311894 39.81251303 29.63319288 36.40792746 33 33 C37 35 37 35 43 42 C29.47 55.53 15.94 69.06 2 83 C-1.5751689 81.21241555 -3.30075531 79.94404498 -6.03417969 77.19287109 C-6.81468689 76.41221283 -7.59519409 75.63155457 -8.39935303 74.82723999 C-9.23178528 73.98448517 -10.06421753 73.14173035 -10.921875 72.2734375 C-11.78186096 71.41062164 -12.64184692 70.54780579 -13.52789307 69.65884399 C-16.2733231 66.90221971 -19.0117169 64.13872201 -21.75 61.375 C-23.61021783 59.50475143 -25.47088946 57.63495411 -27.33203125 55.765625 C-31.89329945 51.1823064 -36.44881011 46.59332522 -41 42 C-36.5021065 36.60809603 -31.73873458 31.60608316 -26.7578125 26.66015625 C-25.98944061 25.89319931 -25.22106873 25.12624237 -24.42941284 24.33604431 C-21.99696491 21.9091526 -19.56104678 19.48577873 -17.125 17.0625 C-15.46591448 15.40843514 -13.80705798 13.75414055 -12.1484375 12.09960938 C-8.10160291 8.06374567 -4.05192047 4.03075723 0 0 Z " fill="#018944" transform="translate(64,53)"/>
<path d="M0 0 C3.5751689 1.78758445 5.30075531 3.05595502 8.03417969 5.80712891 C8.81468689 6.58778717 9.59519409 7.36844543 10.39935303 8.17276001 C11.23178528 9.01551483 12.06421753 9.85826965 12.921875 10.7265625 C13.78186096 11.58937836 14.64184692 12.45219421 15.52789307 13.34115601 C18.2733231 16.09778029 21.0117169 18.86127799 23.75 21.625 C25.61021783 23.49524857 27.47088946 25.36504589 29.33203125 27.234375 C33.89329945 31.8176936 38.44881011 36.40667478 43 41 C38.5021065 46.39190397 33.73873458 51.39391684 28.7578125 56.33984375 C27.98944061 57.10680069 27.22106873 57.87375763 26.42941284 58.66395569 C23.99696491 61.0908474 21.56104678 63.51422127 19.125 65.9375 C17.46591448 67.59156486 15.80705798 69.24585945 14.1484375 70.90039062 C10.10160291 74.93625433 6.05192047 78.96924277 2 83 C-1.62083128 81.30145963 -3.94255354 79.28895218 -6.765625 76.4296875 C-7.65507812 75.53378906 -8.54453125 74.63789062 -9.4609375 73.71484375 C-10.38132813 72.77769531 -11.30171875 71.84054688 -12.25 70.875 C-13.19484856 69.92011363 -14.14015633 68.96568141 -15.0859375 68.01171875 C-17.39518338 65.67890913 -19.69963203 63.34155914 -22 61 C-19.8231071 56.37931546 -16.9523471 54.22043097 -13 51 C-8.71 55.29 -4.42 59.58 0 64 C5.60381599 61.198092 9.39604201 57.01225291 13.8125 52.625 C14.70904297 51.76132813 15.60558594 50.89765625 16.52929688 50.0078125 C17.37169922 49.1725 18.21410156 48.3371875 19.08203125 47.4765625 C19.85780518 46.71424316 20.6335791 45.95192383 21.43286133 45.16650391 C23.18812421 43.17795127 23.18812421 43.17795127 23.02441406 41.01806641 C21.61305241 38.2377243 19.75272534 36.41776826 17.52734375 34.234375 C16.62822266 33.34492187 15.72910156 32.45546875 14.80273438 31.5390625 C13.85720703 30.61867188 12.91167969 29.69828125 11.9375 28.75 C10.97783027 27.80538327 10.01883771 26.86007805 9.06054688 25.9140625 C6.71361172 23.60250828 4.35996609 21.2982366 2 19 C-0.85779017 20.29719924 -2.91008536 21.6636826 -5.11621094 23.88916016 C-5.69651062 24.4696109 -6.2768103 25.05006165 -6.87469482 25.64810181 C-7.48838928 26.27211884 -8.10208374 26.89613586 -8.734375 27.5390625 C-9.37240051 28.17991791 -10.01042603 28.82077332 -10.66778564 29.48104858 C-12.69994069 31.52437821 -14.72502218 33.57455982 -16.75 35.625 C-18.1284453 37.0134786 -19.50734636 38.4015049 -20.88671875 39.7890625 C-24.26311894 43.18748697 -27.63319288 46.59207254 -31 50 C-35 48 -35 48 -41 41 C-27.47 27.47 -13.94 13.94 0 0 Z " fill="#004990" transform="translate(159,53)"/>
<path d="M0 0 C5.3910378 4.4937091 10.38123274 9.25931988 15.3125 14.25 C16.02728516 14.96929687 16.74207031 15.68859375 17.47851562 16.4296875 C18.7919363 17.75177353 20.10432072 19.07489049 21.4152832 20.39941406 C22.6068556 21.6029187 23.80244662 22.80244662 25 24 C21.7 27.3 18.4 30.6 15 34 C10.33333333 29.33333333 5.66666667 24.66666667 1 20 C-3.4580154 23.63919624 -7.30240715 27.31183752 -10.93359375 31.77734375 C-12.69283264 33.66960637 -14.44909691 35.27442826 -16.41015625 36.9453125 C-22.59080791 42.27793286 -28.2532271 48.14737683 -34 53.9375 C-35.16773374 55.11026009 -36.33570074 56.28278798 -37.50390625 57.45507812 C-40.33863234 60.30071689 -43.17018824 63.14947453 -46 66 C-49.24900717 64.91699761 -49.74706612 64.36840631 -51.8125 61.8125 C-57.44653654 55.1418983 -63.79254372 49.1299707 -70 43 C-68.4608199 39.33247995 -66.24514548 37.01419427 -63.4296875 34.234375 C-62.53378906 33.34492187 -61.63789062 32.45546875 -60.71484375 31.5390625 C-59.77769531 30.61867188 -58.84054688 29.69828125 -57.875 28.75 C-56.92011363 27.80515144 -55.96568141 26.85984367 -55.01171875 25.9140625 C-52.67890913 23.60481662 -50.34155914 21.30036797 -48 19 C-43.99625569 20.83692389 -41.28042066 23.49117916 -38.25 26.625 C-37.74339844 27.140625 -37.23679688 27.65625 -36.71484375 28.1875 C-35.47196098 29.45383339 -34.23534724 30.7263144 -33 32 C-31.93513145 31.10698344 -30.87324959 30.2104053 -29.8125 29.3125 C-29.22082031 28.81363281 -28.62914062 28.31476563 -28.01953125 27.80078125 C-25.58049659 25.62593603 -23.30495513 23.3166639 -21 21 C-14 14 -7 7 0 0 Z " fill="#A2A4A6" transform="translate(112,52)"/>
<path d="M0 0 C5.82844198 2.47936883 9.89292125 7.48313987 14.3125 11.875 C15.25673828 12.78636719 16.20097656 13.69773437 17.17382812 14.63671875 C18.06134766 15.51714844 18.94886719 16.39757812 19.86328125 17.3046875 C20.68094971 18.10890137 21.49861816 18.91311523 22.34106445 19.74169922 C24 22 24 22 24.05175781 23.98193359 C22.56753126 26.82980191 20.59903235 28.735082 18.30859375 30.984375 C17.84389175 31.44483215 17.37918976 31.90528931 16.90040588 32.37969971 C15.41968181 33.84367811 13.92885481 35.29686041 12.4375 36.75 C11.42965336 37.74279449 10.42248367 38.7362767 9.41601562 39.73046875 C6.95180539 42.16166473 4.47842671 44.58328868 2 47 C-2.00374431 45.16307611 -4.71957934 42.50882084 -7.75 39.375 C-8.25660156 38.859375 -8.76320312 38.34375 -9.28515625 37.8125 C-10.52803902 36.54616661 -11.76465276 35.2736856 -13 34 C-11.01266924 29.63944901 -8.16176183 26.57416555 -5 23 C-7.64 20.36 -10.28 17.72 -13 15 C-10.96986589 10.93973179 -8.57604446 8.34542624 -5.375 5.25 C-4.859375 4.74339844 -4.34375 4.23679687 -3.8125 3.71484375 C-2.54616661 2.47196098 -1.2736856 1.23534724 0 0 Z " fill="#FAFBFC" transform="translate(159,71)"/>
<path d="M0 0 C4.00374431 1.83692389 6.71957934 4.49117916 9.75 7.625 C10.25660156 8.140625 10.76320312 8.65625 11.28515625 9.1875 C12.52803902 10.45383339 13.76465276 11.7263144 15 13 C13.01266924 17.36055099 10.16176183 20.42583445 7 24 C9.64 26.64 12.28 29.28 15 32 C12.96986589 36.06026821 10.57604446 38.65457376 7.375 41.75 C6.859375 42.25660156 6.34375 42.76320312 5.8125 43.28515625 C4.54616661 44.52803902 3.2736856 45.76465276 2 47 C-1.24900717 45.91699761 -1.74706612 45.36840631 -3.8125 42.8125 C-9.44653654 36.1418983 -15.79254372 30.1299707 -22 24 C-20.4608199 20.33247995 -18.24514548 18.01419427 -15.4296875 15.234375 C-14.08583984 13.90019531 -14.08583984 13.90019531 -12.71484375 12.5390625 C-11.77769531 11.61867188 -10.84054688 10.69828125 -9.875 9.75 C-8.92011363 8.80515144 -7.96568141 7.85984367 -7.01171875 6.9140625 C-4.67890913 4.60481662 -2.34155914 2.30036797 0 0 Z " fill="#FCFDFC" transform="translate(64,71)"/>
<path d="M0 0 C3.73867071 3.12827549 7.43269846 6.30173921 11 9.625 C11.598125 10.17414063 12.19625 10.72328125 12.8125 11.2890625 C14 13 14 13 13.87890625 14.9765625 C12.86670407 17.30687684 11.63900719 18.8674814 9.9375 20.75 C9.38964844 21.36359375 8.84179688 21.9771875 8.27734375 22.609375 C7.85582031 23.06828125 7.43429688 23.5271875 7 24 C7.51691406 24.45890625 8.03382812 24.9178125 8.56640625 25.390625 C9.22511719 26.00421875 9.88382813 26.6178125 10.5625 27.25 C11.22378906 27.85328125 11.88507813 28.4565625 12.56640625 29.078125 C14 31 14 31 13.75976562 32.93164062 C12.91655141 35.22717753 12.02413394 36.32399661 10.27734375 38.015625 C9.73916016 38.54414062 9.20097656 39.07265625 8.64648438 39.6171875 C8.08251953 40.15601563 7.51855469 40.69484375 6.9375 41.25 C6.08575195 42.08144531 6.08575195 42.08144531 5.21679688 42.9296875 C3.81787531 44.29334214 2.40980886 45.64760417 1 47 C-2.73867071 43.87172451 -6.43269846 40.69826079 -10 37.375 C-10.598125 36.82585937 -11.19625 36.27671875 -11.8125 35.7109375 C-13 34 -13 34 -12.87890625 32.0234375 C-11.86670407 29.69312316 -10.63900719 28.1325186 -8.9375 26.25 C-8.11572266 25.32960938 -8.11572266 25.32960938 -7.27734375 24.390625 C-6.85582031 23.93171875 -6.43429688 23.4728125 -6 23 C-6.51691406 22.54109375 -7.03382812 22.0821875 -7.56640625 21.609375 C-8.22511719 20.99578125 -8.88382812 20.3821875 -9.5625 19.75 C-10.22378906 19.14671875 -10.88507813 18.5434375 -11.56640625 17.921875 C-13 16 -13 16 -12.75976562 14.06835938 C-11.91655141 11.77282247 -11.02413394 10.67600339 -9.27734375 8.984375 C-8.73916016 8.45585938 -8.20097656 7.92734375 -7.64648438 7.3828125 C-7.08251953 6.84398438 -6.51855469 6.30515625 -5.9375 5.75 C-5.36966797 5.19570312 -4.80183594 4.64140625 -4.21679688 4.0703125 C-2.81787531 2.70665786 -1.40980886 1.35239583 0 0 Z " fill="#FBFCFC" transform="translate(112,71)"/>
<path d="M0 0 C3.3746251 1.19466655 6.17158766 2.71135858 8.16015625 5.8046875 C9.80037256 10.09213664 9.63145504 14.50169659 9 19 C7.31296139 22.67093809 4.82528274 24.5686022 1.25 26.4375 C-4.31510642 27.4006915 -9.03100383 27.173019 -13.9375 24.25 C-17.84057369 19.99210143 -18.50344127 15.85956337 -18.390625 10.21875 C-17.71451066 6.37842052 -15.79192191 4.66206507 -13 2 C-8.73057217 -0.84628522 -5.01158164 -0.62265105 0 0 Z " fill="#F9FAFC" transform="translate(66,146)"/>
<path d="M0 0 C16.00723035 -0.59943858 16.00723035 -0.59943858 21 3 C22.1875 6.4375 22.1875 6.4375 22 10 C19.82946501 12.94572605 18.47817177 13.84060941 15 15 C12.66700175 15.03954234 10.33291811 15.04401732 8 15 C8.33 18.63 8.66 22.26 9 26 C6.69 26 4.38 26 2 26 C2.01047363 25.28344238 2.02094727 24.56688477 2.03173828 23.82861328 C2.07321299 20.59411095 2.09929892 17.35966447 2.125 14.125 C2.14175781 12.99707031 2.15851563 11.86914062 2.17578125 10.70703125 C2.18222656 9.63066406 2.18867187 8.55429688 2.1953125 7.4453125 C2.20578613 6.45031738 2.21625977 5.45532227 2.22705078 4.43017578 C2.24379401 1.81828583 2.24379401 1.81828583 0 0 Z " fill="#2B609D" transform="translate(125,146)"/>
<path d="M0 0 C2.37570543 -0.0816082 4.74855841 -0.14077222 7.125 -0.1875 C7.79015625 -0.21263672 8.4553125 -0.23777344 9.140625 -0.26367188 C13.8723325 -0.33325581 16.96355779 0.56463897 21 3 C22 4 22 4 22.25 7.375 C22 11 22 11 20.6875 12.875 C17.75520708 14.82986195 15.23175012 15.11855328 11.8125 15.0625 C9.9253125 15.0315625 9.9253125 15.0315625 8 15 C8.14107747 16.45880109 8.28802415 17.91703551 8.4375 19.375 C8.51871094 20.18710938 8.59992188 20.99921875 8.68359375 21.8359375 C8.89090114 24.04272805 8.89090114 24.04272805 10 26 C7.36 26 4.72 26 2 26 C2.66 25.67 3.32 25.34 4 25 C3.91941151 21.20744328 3.80654683 17.41652908 3.6875 13.625 C3.66494141 12.54476562 3.64238281 11.46453125 3.61914062 10.3515625 C3.58369141 9.3203125 3.54824219 8.2890625 3.51171875 7.2265625 C3.48553467 6.27346191 3.45935059 5.32036133 3.43237305 4.33837891 C3.28968994 3.56671387 3.14700684 2.79504883 3 2 C2.01 1.34 1.02 0.68 0 0 Z " fill="#02438D" transform="translate(101,146)"/>
<path d="M0 0 C3.3746251 1.19466655 6.17158766 2.71135858 8.16015625 5.8046875 C9.80037256 10.09213664 9.63145504 14.50169659 9 19 C7.31296139 22.67093809 4.82528274 24.5686022 1.25 26.4375 C-4.31510642 27.4006915 -9.03100383 27.173019 -13.9375 24.25 C-17.84057369 19.99210143 -18.50344127 15.85956337 -18.390625 10.21875 C-17.71451066 6.37842052 -15.79192191 4.66206507 -13 2 C-8.73057217 -0.84628522 -5.01158164 -0.62265105 0 0 Z M-12 5 C-14.28766538 9.57533076 -13.74086999 16.27680218 -12.421875 21.125 C-11.52701865 23.0502748 -11.52701865 23.0502748 -9 25 C-5.8339148 25.78425964 -3.16445948 25.79693189 0 25 C3.57077937 21.60775959 5.15355219 18.67295664 5.3125 13.8125 C5.22184009 8.71081974 4.28969768 5.94763722 1 2 C-4.37003066 -0.27581675 -8.00281615 0.76056258 -12 5 Z " fill="#084990" transform="translate(66,146)"/>
<path d="M0 0 C8.25 0 16.5 0 25 0 C25 2.31 25 4.62 25 7 C24.649375 6.360625 24.29875 5.72125 23.9375 5.0625 C21.65999671 2.20774352 21.65999671 2.20774352 15 2 C15.33 9.92 15.66 17.84 16 26 C13.69 26 11.38 26 9 26 C9.33 25.34 9.66 24.68 10 24 C10.15222973 22.33434251 10.24917215 20.66343504 10.31640625 18.9921875 C10.35830078 18.00605469 10.40019531 17.01992187 10.44335938 16.00390625 C10.48267578 14.97136719 10.52199219 13.93882812 10.5625 12.875 C10.60568359 11.83472656 10.64886719 10.79445312 10.69335938 9.72265625 C10.7996288 7.14857472 10.90166583 4.57439492 11 2 C8.65681039 2.25498627 6.32166397 2.5932667 4 3 C2.48705712 4.93597032 2.48705712 4.93597032 2 7 C1.34 7 0.68 7 0 7 C0 4.69 0 2.38 0 0 Z " fill="#225999" transform="translate(148,146)"/>
<path d="M0 0 C7.26 0 14.52 0 22 0 C22 1.98 22 3.96 22 6 C21.63261719 5.51917969 21.26523438 5.03835937 20.88671875 4.54296875 C18.25159557 2.38795083 16.17494364 2.49327654 12.8125 2.3125 C11.72582031 2.24675781 10.63914062 2.18101562 9.51953125 2.11328125 C8.68808594 2.07589844 7.85664062 2.03851563 7 2 C7 5.3 7 8.6 7 12 C9.413125 11.814375 9.413125 11.814375 11.875 11.625 C12.77992187 11.55539063 13.68484375 11.48578125 14.6171875 11.4140625 C17.17941903 11.20431868 17.17941903 11.20431868 19 9 C19 11.64 19 14.28 19 17 C18.60167969 16.51917969 18.20335938 16.03835937 17.79296875 15.54296875 C15.56549753 13.62608175 14.21165331 13.52258357 11.3125 13.3125 C10.50425781 13.24675781 9.69601563 13.18101562 8.86328125 13.11328125 C8.24839844 13.07589844 7.63351563 13.03851563 7 13 C7.14084796 14.79206547 7.28783701 16.58364917 7.4375 18.375 C7.51871094 19.37273437 7.59992188 20.37046875 7.68359375 21.3984375 C7.84965626 23.97927613 7.84965626 23.97927613 9 26 C6.69 26 4.38 26 2 26 C2.01047363 25.28344238 2.02094727 24.56688477 2.03173828 23.82861328 C2.07321299 20.59411095 2.09929892 17.35966447 2.125 14.125 C2.14175781 12.99707031 2.15851563 11.86914062 2.17578125 10.70703125 C2.18222656 9.63066406 2.18867187 8.55429688 2.1953125 7.4453125 C2.20578613 6.45031738 2.21625977 5.45532227 2.22705078 4.43017578 C2.24379401 1.81828583 2.24379401 1.81828583 0 0 Z " fill="#0D4B91" transform="translate(78,146)"/>
<path d="M0 0 C6.32597793 -0.35807422 6.32597793 -0.35807422 9 1.0625 C10.6154422 4.19241926 9.79884015 6.68174093 9 10 C6.04335481 11.4783226 3.25770263 11.06032783 0 11 C0 7.37 0 3.74 0 0 Z " fill="#F8F9FB" transform="translate(109,148)"/>
<path d="M0 0 C3.60008519 -0.32728047 5.41611492 -0.40422813 8.4375 1.6875 C10 4 10 4 9.875 6.625 C9 9 9 9 7 11 C3.375 11.125 3.375 11.125 0 11 C0 7.37 0 3.74 0 0 Z " fill="#F9FAFC" transform="translate(133,148)"/>
<path d="M0 0 C2.47354197 2.47354197 2.26883535 3.40342975 2.4375 6.8125 C2.91162233 12.41991653 2.91162233 12.41991653 6 17 C9.59919423 17.89592083 9.59919423 17.89592083 13 18 C13 18.66 13 19.32 13 20 C7.23582927 19.74883788 3.10197251 19.4748791 -1 15 C-3.63539971 10.60766715 -3.19449885 5.95972067 -3 1 C-2.01 0.67 -1.02 0.34 0 0 Z " fill="#1B5697" transform="translate(51,153)"/>
<path d="M0 0 C2.37570543 -0.0816082 4.74855841 -0.14077222 7.125 -0.1875 C7.79015625 -0.21263672 8.4553125 -0.23777344 9.140625 -0.26367188 C13.8723325 -0.33325581 16.96355779 0.56463897 21 3 C22 4 22 4 22.25 7.375 C22 11 22 11 20.875 12.875 C17.38110822 14.97133507 14.09487908 15.16661203 10.125 14.5625 C9.42375 14.376875 8.7225 14.19125 8 14 C8 13.67 8 13.34 8 13 C12.455 12.505 12.455 12.505 17 12 C17.16677282 8.58343976 17.16677282 8.58343976 17 5 C14.18802543 2.18802543 11.15988755 2.30097443 7.375 1.875 C6.66859375 1.78863281 5.9621875 1.70226562 5.234375 1.61328125 C3.49049859 1.40118817 1.7453516 1.19959009 0 1 C0 0.67 0 0.34 0 0 Z " fill="#215898" transform="translate(101,146)"/>
<path d="M0 0 C2.64947757 1.08985602 4.62783344 2.34979717 7 4 C5.02 4.99 5.02 4.99 3 6 C2.34 5.01 1.68 4.02 1 3 C-3.0018481 1.94509303 -3.0018481 1.94509303 -7 2 C-9.93854074 4.18802581 -9.93854074 4.18802581 -12 7 C-12.66 7.66 -13.32 8.32 -14 9 C-14.99 9 -15.98 9 -17 9 C-14.34359462 0.30630968 -8.34954819 -1.34837424 0 0 Z " fill="#0E4790" transform="translate(66,146)"/>
<path d="M0 0 C3.51903714 -0.31991247 5.42015168 -0.37169764 8.4375 1.5625 C10 4 10 4 9.75 7.75 C9.5025 8.8225 9.255 9.895 9 11 C5.25 12.125 5.25 12.125 3 11 C3.66 10.01 4.32 9.02 5 8 C4.99077298 5.45286596 4.99077298 5.45286596 4 3 C2.0431712 1.17662247 2.0431712 1.17662247 0 0 Z " fill="#104D93" transform="translate(137,147)"/>
<path d="M0 0 C7.26 0 14.52 0 22 0 C22 1.98 22 3.96 22 6 C21.5862915 5.514104 21.17258301 5.02820801 20.74633789 4.52758789 C17.83321143 1.97936585 14.13976485 2.5020208 10.4375 2.4375 C2.25506757 2.25506757 2.25506757 2.25506757 0 0 Z " fill="#496EA4" transform="translate(78,146)"/>
<path d="M0 0 C6.875 2.75 6.875 2.75 8 5 C6.68 5.33 5.36 5.66 4 6 C3.34 5.01 2.68 4.02 2 3 C1.01 2.34 0.02 1.68 -1 1 C-0.67 0.67 -0.34 0.34 0 0 Z " fill="#215698" transform="translate(65,146)"/>
<path d="M0 0 C0.33 0.99 0.66 1.98 1 3 C-2.69541586 3.95024979 -5.30458414 3.95024979 -9 3 C-9 2.67 -9 2.34 -9 2 C-6.03 1.34 -3.06 0.68 0 0 Z " fill="#3865A0" transform="translate(118,157)"/>
</svg>
