<?xml version="1.0" encoding="UTF-8"?>
<svg version="1.1" xmlns="http://www.w3.org/2000/svg" width="512" height="512">
<path d="M0 0 C126.72 0 253.44 0 384 0 C384 10.56 384 21.12 384 32 C394.56 32 405.12 32 416 32 C416 42.56 416 53.12 416 64 C426.56 64 437.12 64 448 64 C448 190.72 448 317.44 448 448 C437.44 448 426.88 448 416 448 C416 458.56 416 469.12 416 480 C405.44 480 394.88 480 384 480 C384 490.56 384 501.12 384 512 C257.28 512 130.56 512 0 512 C0 501.44 0 490.88 0 480 C-10.56 480 -21.12 480 -32 480 C-32 469.44 -32 458.88 -32 448 C-42.56 448 -53.12 448 -64 448 C-64 321.28 -64 194.56 -64 64 C-53.44 64 -42.88 64 -32 64 C-32 53.44 -32 42.88 -32 32 C-21.44 32 -10.88 32 0 32 C0 21.44 0 10.88 0 0 Z " fill="#00AADE" transform="translate(64,0)"/>
<path d="M0 0 C21.12 0 42.24 0 64 0 C64 10.56 64 21.12 64 32 C74.56 32 85.12 32 96 32 C96 21.44 96 10.88 96 0 C106.56 0 117.12 0 128 0 C128 10.56 128 21.12 128 32 C138.56 32 149.12 32 160 32 C160 42.56 160 53.12 160 64 C149.44 64 138.88 64 128 64 C128 74.56 128 85.12 128 96 C117.44 96 106.88 96 96 96 C96 127.68 96 159.36 96 192 C85.44 192 74.88 192 64 192 C64 202.56 64 213.12 64 224 C53.44 224 42.88 224 32 224 C32 234.56 32 245.12 32 256 C21.44 256 10.88 256 0 256 C0 266.56 0 277.12 0 288 C-21.12 288 -42.24 288 -64 288 C-64 298.56 -64 309.12 -64 320 C-95.68 320 -127.36 320 -160 320 C-160 309.44 -160 298.88 -160 288 C-170.56 288 -181.12 288 -192 288 C-192 277.44 -192 266.88 -192 256 C-160.32 256 -128.64 256 -96 256 C-96 245.44 -96 234.88 -96 224 C-106.56 224 -117.12 224 -128 224 C-128 202.88 -128 181.76 -128 160 C-138.56 160 -149.12 160 -160 160 C-160 149.44 -160 138.88 -160 128 C-170.56 128 -181.12 128 -192 128 C-192 117.44 -192 106.88 -192 96 C-202.56 96 -213.12 96 -224 96 C-224 85.44 -224 74.88 -224 64 C-192.32 64 -160.64 64 -128 64 C-128 74.56 -128 85.12 -128 96 C-96.32 96 -64.64 96 -32 96 C-32 74.88 -32 53.76 -32 32 C-21.44 32 -10.88 32 0 32 C0 21.44 0 10.88 0 0 Z " fill="#F8F9FA" transform="translate(288,96)"/>
<path d="M0 0 C126.72 0 253.44 0 384 0 C384 10.56 384 21.12 384 32 C257.28 32 130.56 32 0 32 C0 21.44 0 10.88 0 0 Z " fill="#008FBB" transform="translate(64,480)"/>
<path d="M0 0 C10.56 0 21.12 0 32 0 C32 126.72 32 253.44 32 384 C21.44 384 10.88 384 0 384 C0 257.28 0 130.56 0 0 Z " fill="#008FBB" transform="translate(480,64)"/>
<path d="M0 0 C10.56 0 21.12 0 32 0 C32 126.72 32 253.44 32 384 C21.44 384 10.88 384 0 384 C0 257.28 0 130.56 0 0 Z " fill="#29B7E3" transform="translate(0,64)"/>
<path d="M0 0 C126.72 0 253.44 0 384 0 C384 10.56 384 21.12 384 32 C257.28 32 130.56 32 0 32 C0 21.44 0 10.88 0 0 Z " fill="#29B7E3" transform="translate(64,0)"/>
<path d="M0 0 C10.56 0 21.12 0 32 0 C32 10.56 32 21.12 32 32 C21.44 32 10.88 32 0 32 C0 21.44 0 10.88 0 0 Z " fill="#008FBB" transform="translate(448,448)"/>
<path d="M0 0 C10.56 0 21.12 0 32 0 C32 10.56 32 21.12 32 32 C21.44 32 10.88 32 0 32 C0 21.44 0 10.88 0 0 Z " fill="#29B7E3" transform="translate(32,32)"/>
</svg>
